<?xml version="1.0" encoding="utf-8"?>
<!-- Generator: Adobe Illustrator 19.0.0, SVG Export Plug-In . SVG Version: 6.00 Build 0)  -->
<svg version="1.1" id="Layer_1" xmlns="http://www.w3.org/2000/svg" xmlns:xlink="http://www.w3.org/1999/xlink" x="0px" y="0px"
	 viewBox="0 0 1417.3 1417.3" style="enable-background:new 0 0 1417.3 1417.3;" xml:space="preserve">
<style type="text/css">
	.st0{fill:#029FC6;}
	.st1{font-family:'Revamped';}
	.st2{font-size:250.0718px;}
	.st3{font-family:'Roboto-Regular';}
	.st4{font-size:83.4892px;}
	.st5{fill:#1D1D1B;}
</style>
<g>
	<g>
		<g>
			<path class="st0" d="M538.6,662.8c-1.4,1.8-3,3.5-4.3,5.3c-6.7,8.9-9.8,19-9.9,30.1c0,7.9,0,15.9,0,23.8c0,0.6,0,1.2,0,1.9
				c-33.7,0-67.2,0-100.9,0c0-0.8,0-1.5,0-2.2c0-18.9,0-37.8,0-56.7c0-0.7-0.1-1.5-0.1-2.2C461.8,662.8,500.2,662.8,538.6,662.8z"/>
			<path class="st0" d="M472.4,835.8c-3.6-0.7-6.8-2.1-9.3-5c-2.5-3-3.6-6.4-3.6-10.3c0-18.2,0-36.4,0-54.5c0-0.7,0-1.3,0-2.1
				c-0.7,0-1.3-0.1-1.9-0.1c-6.2,0-12.5,0-18.7,0c-6.2,0-11.1-2.5-13.8-8.2c-0.9-2-1.4-4.3-1.5-6.5c-0.2-4.4-0.1-8.9-0.1-13.3
				c0-0.2,0.1-0.4,0.1-0.7c33.6,0,67.1,0,100.7,0c0,4.9,0,9.7,0,14.5c0,1.2-0.2,2.4-0.5,3.5c-1.9,6.8-7.3,10.7-14.7,10.7
				c-6.2,0-12.5,0-18.7,0c-0.6,0-1.2,0-2,0c0,0.9,0,1.5,0,2.2c0,18.1,0,36.2,0,54.4c0,5.2-1.6,9.6-5.9,12.6c-2,1.4-4.4,2-6.7,2.9
				C474.7,835.8,473.6,835.8,472.4,835.8z"/>
		</g>
	</g>
	<path class="st0" d="M882.1,694.6h-173l-24.7-37.1h197.7V694.6z"/>
	<path class="st0" d="M684.4,657.5h197.7l-24.7,37.1h-173V657.5z"/>
	<g>
		<g>
			<g>
				<path class="st0" d="M515.5,645.1c0-0.2,0.1-0.4,0.1-0.7c1.1-0.1,2.1-0.2,3.2-0.2c0.3,0,0.6-0.1,1-0.2
					c13.1-2.7,21.4-10.8,25.2-23.3c3.8-12.5,1.1-23.7-8.5-32.9c-12.9-12.3-25.8-24.6-38.8-36.7c-18.1-16.9-45.4-16.9-63.6,0
					c-13,12.1-25.8,24.3-38.6,36.5c-9.1,8.6-12,19.1-9.3,31.2c3.7,16.2,17.8,26.9,34.3,25.4c6-0.5,12-1.7,17.8-3.3
					c11.2-3.1,22.4-6.1,34.1-4.5c7.9,1,15.6,3,23.4,4.6C502.4,642.4,509,643.7,515.5,645.1z"/>
				<path class="st0" d="M458.6,483.9c-0.4-9.9-2.3-19.7-8.6-28c-4.4-5.8-10.2-9.5-17.7-9.7c-9.4-0.3-16,4.6-20.9,12.1
					c-4.4,6.7-6.2,14.2-6.8,22.1c-0.8,11.9,1.7,22.9,9.4,32.2c9.9,12.1,25.1,12.1,35.1,0.1C455.8,504.5,458.4,494.7,458.6,483.9z"/>
				<path class="st0" d="M473.2,483.7c0.1,9.6,2.2,18.5,7.5,26.3c4.2,6.2,9.6,10.8,17.4,11.6c9.8,1,16.7-4,21.8-11.7
					c6.9-10.3,8.7-21.8,6.8-33.9c-1.2-7.7-3.6-15-8.8-21.1c-6.1-7.1-13.7-10.4-23-8.1c-7.5,1.9-12.6,7.1-16.2,13.8
					C474.9,467.9,473.5,475.8,473.2,483.7z"/>
				<path class="st0" d="M398.5,535.8c-0.1-1.2-0.2-3.6-0.5-5.9c-1.5-10.6-5.5-20.1-13.7-27.2c-10.8-9.3-24.4-6-29.8,7.3
					c-3.2,7.7-3.2,15.7-1.7,23.7c1.8,9.4,5.3,18.1,12.4,24.9c10.5,9.9,24.6,7,30.4-6.1C397.7,547.4,398.5,542.3,398.5,535.8z"/>
				<path class="st0" d="M580.2,526.8c0-8.2-1.2-13.8-3.5-18.4c-6-12.1-18.6-14.7-28.9-6c-12.1,10.2-17.9,31.6-12.6,47.1
					c5.4,16.1,21.9,19.6,33.5,7C576.8,547.6,579.7,536.6,580.2,526.8z"/>
				<path class="st0" d="M515.5,645.1c-6.6-1.3-13.1-2.7-19.7-4c-7.8-1.6-15.5-3.6-23.4-4.6c-11.7-1.6-22.9,1.4-34.1,4.5
					c-5.8,1.6-11.8,2.8-17.8,3.3c-16.5,1.4-30.6-9.2-34.3-25.4c-2.7-12.1,0.2-22.6,9.3-31.2c12.9-12.2,25.7-24.4,38.6-36.5
					c18.1-16.9,45.5-16.9,63.6,0c13,12.2,25.9,24.4,38.8,36.7c9.6,9.2,12.3,20.4,8.5,32.9c-3.8,12.5-12.1,20.6-25.2,23.3
					c-0.3,0.1-0.6,0.1-1,0.2c-1.1,0.1-2.1,0.2-3.2,0.2C515.6,644.6,515.6,644.9,515.5,645.1z"/>
				<path class="st0" d="M458.6,483.9c-0.2,10.8-2.8,20.5-9.6,28.8c-9.9,12.1-25.2,12.1-35.1-0.1c-7.6-9.4-10.2-20.4-9.4-32.2
					c0.5-7.9,2.4-15.4,6.8-22.1c4.9-7.5,11.5-12.3,20.9-12.1c7.5,0.2,13.3,3.9,17.7,9.7C456.4,464.3,458.3,474,458.6,483.9z"/>
				<path class="st0" d="M473.2,483.7c0.2-7.9,1.6-15.7,5.5-23c3.6-6.7,8.7-11.9,16.2-13.8c9.3-2.3,16.9,1,23,8.1
					c5.2,6,7.6,13.3,8.8,21.1c1.8,12.1,0,23.6-6.8,33.9c-5.1,7.7-12,12.6-21.8,11.7c-7.8-0.8-13.2-5.4-17.4-11.6
					C475.4,502.1,473.3,493.3,473.2,483.7z"/>
				<path class="st0" d="M398.5,535.8c0,6.5-0.8,11.6-3,16.5c-5.8,13.2-20,16-30.4,6.1c-7.1-6.8-10.6-15.4-12.4-24.9
					c-1.5-8-1.5-16,1.7-23.7c5.5-13.2,19-16.6,29.8-7.3c8.3,7.2,12.2,16.6,13.7,27.2C398.3,532.2,398.4,534.6,398.5,535.8z"/>
				<path class="st0" d="M580.2,526.8c-0.5,9.8-3.4,20.8-11.5,29.7c-11.5,12.6-28,9.1-33.5-7c-5.2-15.5,0.5-36.9,12.6-47.1
					c10.3-8.7,22.9-6.1,28.9,6C579,513,580.2,518.7,580.2,526.8z"/>
			</g>
		</g>
		<g>
			<path class="st0" d="M215.9,700H92.6L68,663h148c41.1,0,61.6,16.4,61.6,49.3v12.3c0,32.9-20.5,49.3-61.6,49.3h-61.6v-37h61.6
				c8.2,0,12.3-4.1,12.3-12.3v-12.3C228.3,704.1,224.1,700,215.9,700z M142,835.6H92.6V712.3H142V835.6z"/>
			<path class="st0" d="M334,765.8l-35.5,69.9H251L310.9,720L334,765.8z M317.7,707l22.9-44.1l89.6,172.8h-47.6L317.7,707z"/>
			<polygon class="st0" points="551.2,663.1 682,793.9 682,837.6 551.2,706.7 			"/>
			<polygon class="st0" points="586.1,763.2 586.1,836.2 551.2,836.2 551.2,718.9 			"/>
			<polygon class="st0" points="647.1,736.9 647.1,662.8 682,662.8 682,781.7 			"/>
			<rect x="760.1" y="713.3" class="st0" width="49.4" height="123.5"/>
			<text transform="matrix(1 0 0 1 970.3456 835.873)" class="st0 st1 st2">BY</text>
		</g>
	</g>
	<text transform="matrix(1 0 0 1 438.3144 948.5107)" class="st3 st4">NUMBERS PET</text>
	<g>
		<polygon class="st5" points="433.6,926 51.7,924 433.6,922 		"/>
	</g>
	<g>
		<polygon class="st5" points="983.7,921.5 1365.7,924 983.7,926.5 		"/>
	</g>
</g>
</svg>
